<?xml version="1.0" encoding="UTF-8" standalone="no"?>
<!DOCTYPE svg PUBLIC "-//W3C//DTD SVG 1.1//EN" "http://www.w3.org/Graphics/SVG/1.1/DTD/svg11.dtd">
<!-- Created with Vectornator (http://vectornator.io/) -->
<svg height="20.0px" stroke-miterlimit="10" style="fill-rule:nonzero;clip-rule:evenodd;stroke-linecap:round;stroke-linejoin:round;" version="1.1" viewBox="0 0 20 20" width="20.0px" xml:space="preserve" xmlns="http://www.w3.org/2000/svg" xmlns:xlink="http://www.w3.org/1999/xlink">
<defs>
<linearGradient gradientTransform="matrix(0.182027 20.4952 -20.4952 0.182027 9.65796 0.688267)" gradientUnits="userSpaceOnUse" id="LinearGradient" x1="0" x2="1" y1="0" y2="0">
<stop offset="0" stop-color="#819db8"/>
<stop offset="1" stop-color="#0f3963"/>
</linearGradient>
</defs>
<clipPath id="ArtboardFrame">
<rect height="20" width="20" x="0" y="0"/>
</clipPath>
<g clip-path="url(#ArtboardFrame)" id="Layer-1">
<path d="M8.88178e-15 0.0601925C8.88178e-15 0.0269491 0.0269491 0 0.0601925 0L19.9398-3.55271e-15C19.9731-3.55271e-15 20 0.0269491 20 0.0601925L20 19.9398C20 19.9731 19.9731 20 19.9398 20L0.0601925 20C0.0269491 20 3.55271e-15 19.9731 3.55271e-15 19.9398L8.88178e-15 0.0601925Z" fill="url(#LinearGradient)" fill-rule="nonzero" opacity="1" stroke="none"/>
<path d="M2 14.0602C2 14.0269 2.02695 14 2.06019 14L17.9398 14C17.9731 14 18 14.0269 18 14.0602L18 17.9398C18 17.9731 17.9731 18 17.9398 18L2.06019 18C2.02695 18 2 17.9731 2 17.9398L2 14.0602Z" fill="none" opacity="1" stroke="#ffffff" stroke-linecap="butt" stroke-linejoin="round" stroke-width="1"/>
<path d="M-11 26L-6 26L-6 67L-11 67L-11 26Z" fill="none" opacity="1" stroke="#ffffff" stroke-linecap="butt" stroke-linejoin="round" stroke-width="1"/>
<path d="M8.36435 2C8.33572 2 8.31052 2.02697 8.31052 2.05761L8.31052 7.50211L4.13833 7.4733C4.09221 7.47294 4.05221 7.55328 4.0845 7.58853L6.99157 10.7573L9.95247 13.9836C9.9726 14.0056 10.0128 14.0053 10.0332 13.9836L13.021 10.7861L15.982 7.67495C16.0147 7.64021 16.0012 7.58889 15.955 7.58853L11.7559 7.55972L11.7559 2.05761C11.7559 2.02697 11.7307 2 11.7021 2L8.36435 2Z" fill="none" opacity="1" stroke="#ffffff" stroke-linecap="butt" stroke-linejoin="round" stroke-width="1"/>
</g>
</svg>
