<?xml version="1.0" encoding="UTF-8" standalone="no"?>
<!DOCTYPE svg PUBLIC "-//W3C//DTD SVG 1.1//EN" "http://www.w3.org/Graphics/SVG/1.1/DTD/svg11.dtd">
<!-- Created with Vectornator (http://vectornator.io/) -->
<svg height="20.0px" stroke-miterlimit="10" style="fill-rule:nonzero;clip-rule:evenodd;stroke-linecap:round;stroke-linejoin:round;" version="1.1" viewBox="0 0 20 20" width="20.0px" xml:space="preserve" xmlns="http://www.w3.org/2000/svg" xmlns:xlink="http://www.w3.org/1999/xlink">
<defs>
<linearGradient gradientTransform="matrix(0.182027 20.4952 -20.4952 0.182027 9.65796 0.688267)" gradientUnits="userSpaceOnUse" id="LinearGradient" x1="0" x2="1" y1="0" y2="0">
<stop offset="0" stop-color="#819db8"/>
<stop offset="1" stop-color="#0f3963"/>
</linearGradient>
</defs>
<clipPath id="ArtboardFrame">
<rect height="20" width="20" x="0" y="0"/>
</clipPath>
<g clip-path="url(#ArtboardFrame)" id="Layer-1">
<path d="M8.88178e-15 0.0601925C8.88178e-15 0.0269491 0.0269491 0 0.0601925 0L19.9398-3.55271e-15C19.9731-3.55271e-15 20 0.0269491 20 0.0601925L20 19.9398C20 19.9731 19.9731 20 19.9398 20L0.0601925 20C0.0269491 20 3.55271e-15 19.9731 3.55271e-15 19.9398L8.88178e-15 0.0601925Z" fill="url(#LinearGradient)" fill-rule="nonzero" opacity="1" stroke="none"/>
<path d="M-11 26L-6 26L-6 67L-11 67L-11 26Z" fill="none" opacity="1" stroke="#ffffff" stroke-linecap="butt" stroke-linejoin="round" stroke-width="1"/>
<path d="M14.3125 1C14.2868 0.977692 14.2194 1.00031 14.2188 1.03125L14.1875 3.84375L11 4L7 9L4 4L1 4L5 10L1 16L4 16L7 11L11 16L14.0938 16.1562L14.0625 18.9688C14.0619 18.9997 14.0984 19.0213 14.125 19L16.5312 17.0625L18.9688 15.125C18.9853 15.1117 18.9847 15.0764 18.9688 15.0625L16.5938 13.0312L14.3125 11C14.2868 10.9777 14.2194 11.0003 14.2188 11.0312L14.1875 13.8438C14.1875 13.8438 12.0002 13.9808 12 14L8.8125 10L12 6L14.0938 6.15625L14.0625 8.96875C14.0619 8.99969 14.0984 9.02134 14.125 9L16.5312 7.0625L18.9688 5.125C18.9853 5.1117 18.9847 5.0764 18.9688 5.0625L16.5938 3.03125L14.3125 1Z" fill="none" opacity="1" stroke="#ffffff" stroke-linecap="butt" stroke-linejoin="round" stroke-width="1"/>
</g>
</svg>
