<?xml version="1.0" encoding="UTF-8" standalone="no"?>
<!DOCTYPE svg PUBLIC "-//W3C//DTD SVG 1.1//EN" "http://www.w3.org/Graphics/SVG/1.1/DTD/svg11.dtd">
<!-- Created with Vectornator (http://vectornator.io/) -->
<svg height="7.0px" stroke-miterlimit="10" style="fill-rule:nonzero;clip-rule:evenodd;stroke-linecap:round;stroke-linejoin:round;" version="1.1" viewBox="0 0 16 7" width="16.0px" xml:space="preserve" xmlns="http://www.w3.org/2000/svg" xmlns:xlink="http://www.w3.org/1999/xlink">
<defs>
<linearGradient gradientTransform="matrix(0.180324 6.2463 -14.2773 0.0788919 7.72637 0.240893)" gradientUnits="userSpaceOnUse" id="LinearGradient" x1="0" x2="1" y1="0" y2="0">
<stop offset="0" stop-color="#819db8"/>
<stop offset="1" stop-color="#0f3963"/>
</linearGradient>
</defs>
<clipPath id="ArtboardFrame">
<rect height="7" width="16" x="0" y="0"/>
</clipPath>
<g clip-path="url(#ArtboardFrame)" id="Layer-1">
<path d="M7.28306e-15 0.0210674C7.28306e-15 0.00943218 0.0215593 1.24345e-15 0.048154 1.24345e-15L15.9518 0C15.9785 0 16 0.00943218 16 0.0210674L16 6.97893C16 6.99058 15.9785 7 15.9518 7L0.048154 7C0.0215593 7 3.01981e-15 6.99058 3.01981e-15 6.97893L7.28306e-15 0.0210674Z" fill="url(#LinearGradient)" fill-rule="nonzero" opacity="1" stroke="none"/>
<g fill="#f7f8f8" opacity="1" stroke="none">
<path d="M-142.681-22.1308L-142.681-23.327L-143.481-23.327L-143.481-19.9262L-142.712-19.9262L-142.712-19.0512L-145.6-19.0512L-145.6-19.9262L-144.818-19.9262L-144.818-23.327L-145.6-23.327L-145.6-22.1308L-146.475-22.1308L-146.475-24.202L-141.813-24.202L-141.813-22.1308L-142.681-22.1308Z"/>
<path d="M-137.958-20.6063L-140.638-20.6063C-140.61-20.3306-140.515-20.1124-140.352-19.9518C-140.189-19.7912-139.979-19.7108-139.722-19.7108C-139.437-19.7108-139.159-19.8521-138.888-20.1347L-137.999-19.8476C-138.195-19.5536-138.438-19.3331-138.727-19.1862C-139.016-19.0392-139.359-18.9657-139.756-18.9657C-140.152-18.9657-140.503-19.0403-140.807-19.1896C-141.111-19.3388-141.347-19.5502-141.514-19.8236C-141.682-20.0971-141.765-20.4184-141.765-20.7875C-141.765-21.1521-141.678-21.4825-141.504-21.7787C-141.33-22.0749-141.094-22.3068-140.796-22.4743C-140.499-22.6417-140.176-22.7255-139.827-22.7255C-139.449-22.7255-139.12-22.6383-138.84-22.464C-138.559-22.2897-138.344-22.0425-138.192-21.7223C-138.04-21.4022-137.962-21.0302-137.958-20.6063ZM-139.882-21.9633C-140.087-21.9633-140.252-21.904-140.376-21.7855C-140.5-21.6671-140.578-21.4859-140.61-21.2421L-139.113-21.2421C-139.145-21.4563-139.232-21.63-139.375-21.7633C-139.517-21.8966-139.686-21.9633-139.882-21.9633Z"/>
<path d="M-135.008-22.6435L-133.921-22.6435L-133.921-21.8026L-134.403-21.8026L-135.124-20.9481L-134.287-19.8783L-133.795-19.8783L-133.795-19.0512L-135.176-19.0512L-135.866-20.0595L-136.618-19.0512L-137.736-19.0512L-137.736-19.8783L-137.213-19.8783L-136.433-20.8012L-137.213-21.8026L-137.736-21.8026L-137.736-22.6435L-136.351-22.6435L-135.705-21.6557L-135.008-22.6435Z"/>
<path d="M-131.19-22.6435L-131.19-21.8026L-131.853-21.8026L-131.853-20.2338C-131.853-20.1221-131.832-20.0384-131.788-19.9826C-131.745-19.9267-131.664-19.8988-131.546-19.8988C-131.448-19.8988-131.329-19.9239-131.19-19.974L-131.19-19.1776C-131.498-19.0569-131.787-18.9965-132.058-18.9965C-132.371-18.9965-132.605-19.0757-132.761-19.234C-132.917-19.3924-132.995-19.6163-132.995-19.9057L-132.995-21.8026L-133.45-21.8026L-133.45-22.6435L-132.995-22.6435L-132.995-23.2006L-131.853-24.0209L-131.853-22.6435L-131.19-22.6435Z"/>
</g>
<g fill="#f7f8f8" opacity="1" stroke="none">
<path d="M-120.732 62.6021L-120.732 61.4058L-121.532 61.4058L-121.532 64.8067L-120.763 64.8067L-120.763 65.6817L-123.651 65.6817L-123.651 64.8067L-122.868 64.8067L-122.868 61.4058L-123.651 61.4058L-123.651 62.6021L-124.526 62.6021L-124.526 60.5308L-119.864 60.5308L-119.864 62.6021L-120.732 62.6021Z"/>
<path d="M-116.008 64.1265L-118.688 64.1265C-118.661 64.4022-118.566 64.6204-118.403 64.781C-118.24 64.9417-118.03 65.022-117.772 65.022C-117.487 65.022-117.209 64.8807-116.938 64.5982L-116.049 64.8853C-116.245 65.1792-116.488 65.3997-116.777 65.5467C-117.067 65.6936-117.41 65.7671-117.806 65.7671C-118.203 65.7671-118.553 65.6925-118.857 65.5433C-119.161 65.394-119.397 65.1827-119.565 64.9092C-119.732 64.6358-119.816 64.3145-119.816 63.9454C-119.816 63.5808-119.729 63.2504-119.555 62.9541C-119.38 62.6579-119.144 62.4261-118.847 62.2586C-118.55 62.0911-118.227 62.0074-117.878 62.0074C-117.5 62.0074-117.17 62.0945-116.89 62.2688C-116.61 62.4432-116.394 62.6904-116.242 63.0105C-116.091 63.3307-116.013 63.7027-116.008 64.1265ZM-117.933 62.7696C-118.138 62.7696-118.302 62.8288-118.427 62.9473C-118.551 63.0658-118.629 63.2469-118.661 63.4908L-117.164 63.4908C-117.196 63.2766-117.283 63.1028-117.425 62.9695C-117.568 62.8362-117.737 62.7696-117.933 62.7696Z"/>
<path d="M-113.059 62.0894L-111.972 62.0894L-111.972 62.9302L-112.454 62.9302L-113.175 63.7847L-112.337 64.8545L-111.845 64.8545L-111.845 65.6817L-113.226 65.6817L-113.917 64.6734L-114.669 65.6817L-115.786 65.6817L-115.786 64.8545L-115.263 64.8545L-114.484 63.9317L-115.263 62.9302L-115.786 62.9302L-115.786 62.0894L-114.402 62.0894L-113.756 63.0772L-113.059 62.0894Z"/>
<path d="M-109.241 62.0894L-109.241 62.9302L-109.904 62.9302L-109.904 64.4991C-109.904 64.6107-109.882 64.6945-109.839 64.7503C-109.796 64.8061-109.715 64.834-109.596 64.834C-109.498 64.834-109.38 64.809-109.241 64.7588L-109.241 65.5552C-109.548 65.676-109.838 65.7364-110.109 65.7364C-110.421 65.7364-110.655 65.6572-110.811 65.4988C-110.967 65.3405-111.045 65.1166-111.045 64.8272L-111.045 62.9302L-111.5 62.9302L-111.5 62.0894L-111.045 62.0894L-111.045 61.5323L-109.904 60.712L-109.904 62.0894L-109.241 62.0894Z"/>
</g>
<g fill="#f7f8f8" opacity="1" stroke="none">
<path d="M3.7395 5.91885L6.48413 0.614158L7.53345 0.614158L4.80249 5.91885L3.7395 5.91885Z"/>
<path d="M11.6282 2.06338C11.6282 2.32542 11.5695 2.55329 11.4521 2.74697C11.3348 2.94066 11.177 3.11668 10.9788 3.27505C10.7805 3.43341 10.4923 3.62653 10.114 3.85439C9.49878 4.23265 9.15812 4.60635 9.09204 4.97549L10.6472 4.97549L10.6472 4.30898L11.6897 4.30898L11.6282 5.85732L7.87524 5.85732C7.87524 5.39931 7.92993 5.0222 8.03931 4.72597C8.14868 4.42975 8.32129 4.15802 8.55713 3.91079C8.79297 3.66356 9.13989 3.37018 9.5979 3.03066C9.83944 2.85293 10.0234 2.68089 10.1499 2.51455C10.2764 2.34821 10.3396 2.17731 10.3396 2.00185C10.3396 1.82868 10.2895 1.69765 10.1892 1.60879C10.0889 1.51992 9.94539 1.47549 9.75854 1.47549C9.51701 1.47549 9.33757 1.55923 9.22021 1.72671C9.10286 1.89419 9.0328 2.16706 9.01001 2.54531L7.94019 2.50429C7.95386 1.86855 8.11678 1.39459 8.42896 1.08242C8.74113 0.770245 9.20825 0.614158 9.83032 0.614158C10.3886 0.614158 10.8278 0.742332 11.1479 0.99868C11.4681 1.25503 11.6282 1.60993 11.6282 2.06338Z"/>
</g>
</g>
</svg>
