<?xml version="1.0" encoding="UTF-8" standalone="no"?>
<!DOCTYPE svg PUBLIC "-//W3C//DTD SVG 1.1//EN" "http://www.w3.org/Graphics/SVG/1.1/DTD/svg11.dtd">
<!-- Created with Vectornator (http://vectornator.io/) -->
<svg height="20.0px" stroke-miterlimit="10" style="fill-rule:nonzero;clip-rule:evenodd;stroke-linecap:round;stroke-linejoin:round;" version="1.1" viewBox="0 0 20 20" width="20.0px" xml:space="preserve" xmlns="http://www.w3.org/2000/svg" xmlns:xlink="http://www.w3.org/1999/xlink">
<defs>
<linearGradient gradientTransform="matrix(0.182027 20.4952 -20.4952 0.182027 9.65796 0.688267)" gradientUnits="userSpaceOnUse" id="LinearGradient" x1="0" x2="1" y1="0" y2="0">
<stop offset="0" stop-color="#819db8"/>
<stop offset="1" stop-color="#0f3963"/>
</linearGradient>
</defs>
<clipPath id="ArtboardFrame">
<rect height="20" width="20" x="0" y="0"/>
</clipPath>
<g clip-path="url(#ArtboardFrame)" id="Layer-1">
<path d="M9.10383e-15 0.0601925C9.10383e-15 0.0269491 0.0269491 3.55271e-15 0.0601925 3.55271e-15L19.9398 0C19.9731 0 20 0.0269491 20 0.0601925L20 19.9398C20 19.9731 19.9731 20 19.9398 20L0.0601925 20C0.0269491 20 3.77476e-15 19.9731 3.77476e-15 19.9398L9.10383e-15 0.0601925Z" fill="url(#LinearGradient)" fill-rule="nonzero" opacity="1" stroke="none"/>
<path d="M-11 26L-6 26L-6 67L-11 67L-11 26Z" fill="none" opacity="1" stroke="#ffffff" stroke-linecap="butt" stroke-linejoin="round" stroke-width="1"/>
<g opacity="1">
<path d="M13.7102 5.02861L12.353 5.21992L13.9077 6.34263L13.7102 5.02861Z" fill="#f7f8f8" fill-rule="nonzero" opacity="1" stroke="none"/>
<path d="M10.7627 8.97319L13 6" fill="none" opacity="1" stroke="#ffffff" stroke-linecap="butt" stroke-linejoin="round" stroke-width="0.685661"/>
<path d="M2.01787 10.4884C2.01787 6.33988 5.49135 2.97682 9.77611 2.97682C14.0609 2.97682 17.5343 6.33988 17.5343 10.4884C17.5343 14.6369 14.0609 18 9.77611 18C5.49135 18 2.01787 14.6369 2.01787 10.4884Z" fill="none" opacity="1" stroke="#ffffff" stroke-linecap="butt" stroke-linejoin="round" stroke-width="0.788155"/>
<path d="M2 4.23089L3.72168 2.62039L5.4113 4.31362L3.68962 5.92413L2 4.23089Z" fill="none" opacity="1" stroke="#ffffff" stroke-linecap="butt" stroke-linejoin="round" stroke-width="0.788155"/>
<path d="M14.6071 4.23089L16.3288 2.62039L18.0184 4.31362L16.2967 5.92413L14.6071 4.23089Z" fill="none" opacity="1" stroke="#ffffff" stroke-linecap="butt" stroke-linejoin="round" stroke-width="0.788155"/>
<path d="M8.80633 10.4884C8.80633 9.96985 9.24051 9.54946 9.77611 9.54946C10.3117 9.54946 10.7459 9.96985 10.7459 10.4884C10.7459 11.007 10.3117 11.4274 9.77611 11.4274C9.24051 11.4274 8.80633 11.007 8.80633 10.4884Z" fill="none" opacity="1" stroke="#ffffff" stroke-linecap="butt" stroke-linejoin="round" stroke-width="0.788155"/>
</g>
<path d="M6 4L6 2L14 2L14 4" fill="none" opacity="1" stroke="#ffffff" stroke-linecap="butt" stroke-linejoin="round" stroke-width="0.788155"/>
</g>
</svg>
