<?xml version="1.0" encoding="UTF-8" standalone="no"?>
<!DOCTYPE svg PUBLIC "-//W3C//DTD SVG 1.1//EN" "http://www.w3.org/Graphics/SVG/1.1/DTD/svg11.dtd">
<!-- Created with Vectornator (http://vectornator.io/) -->
<svg height="20.0px" stroke-miterlimit="10" style="fill-rule:nonzero;clip-rule:evenodd;stroke-linecap:round;stroke-linejoin:round;" version="1.1" viewBox="0 0 20 20" width="20.0px" xml:space="preserve" xmlns="http://www.w3.org/2000/svg" xmlns:xlink="http://www.w3.org/1999/xlink">
<defs>
<linearGradient gradientTransform="matrix(0.182027 20.4952 -20.4952 0.182027 9.65796 0.688267)" gradientUnits="userSpaceOnUse" id="LinearGradient" x1="0" x2="1" y1="0" y2="0">
<stop offset="0" stop-color="#819db8"/>
<stop offset="1" stop-color="#0f3963"/>
</linearGradient>
</defs>
<clipPath id="ArtboardFrame">
<rect height="20" width="20" x="0" y="0"/>
</clipPath>
<g clip-path="url(#ArtboardFrame)" id="Layer-1">
<path d="M9.08027e-15 0.0601925C9.08027e-15 0.0269491 0.0269491 3.55271e-15 0.0601925 3.55271e-15L19.9398 0C19.9731 0 20 0.0269491 20 0.0601925L20 19.9398C20 19.9731 19.9731 20 19.9398 20L0.0601925 20C0.0269491 20 3.7512e-15 19.9731 3.7512e-15 19.9398L9.08027e-15 0.0601925Z" fill="url(#LinearGradient)" fill-rule="nonzero" opacity="1" stroke="none"/>
<path d="M-11 26L-6 26L-6 67L-11 67L-11 26Z" fill="none" opacity="1" stroke="#ffffff" stroke-linecap="butt" stroke-linejoin="round" stroke-width="1"/>
<path d="M2 9.8C5 10.7 6 14.3991 6 17C6 17 6 10.7 12 8" fill="none" opacity="1" stroke="#ffffff" stroke-linecap="butt" stroke-linejoin="round" stroke-width="1"/>
<path d="M14 5.5C14 4.11929 15.1193 3 16.5 3C17.8807 3 19 4.11929 19 5.5C19 6.88071 17.8807 8 16.5 8C15.1193 8 14 6.88071 14 5.5Z" fill="none" opacity="1" stroke="#ffffff" stroke-linecap="butt" stroke-linejoin="round" stroke-width="1"/>
<path d="M1 18L19 18" fill="none" opacity="1" stroke="#ffffff" stroke-linecap="butt" stroke-linejoin="round" stroke-width="1"/>
</g>
</svg>
