<?xml version="1.0" encoding="UTF-8" standalone="no"?>
<!DOCTYPE svg PUBLIC "-//W3C//DTD SVG 1.1//EN" "http://www.w3.org/Graphics/SVG/1.1/DTD/svg11.dtd">
<!-- Created with Vectornator (http://vectornator.io/) -->
<svg height="20.0px" stroke-miterlimit="10" style="fill-rule:nonzero;clip-rule:evenodd;stroke-linecap:round;stroke-linejoin:round;" version="1.1" viewBox="0 0 20 20" width="20.0px" xml:space="preserve" xmlns="http://www.w3.org/2000/svg" xmlns:xlink="http://www.w3.org/1999/xlink">
<defs>
<linearGradient gradientTransform="matrix(0.182027 20.4952 -20.4952 0.182027 9.65796 0.688267)" gradientUnits="userSpaceOnUse" id="LinearGradient" x1="0" x2="1" y1="0" y2="0">
<stop offset="0" stop-color="#819db8"/>
<stop offset="1" stop-color="#0f3963"/>
</linearGradient>
</defs>
<clipPath id="ArtboardFrame">
<rect height="20" width="20" x="0" y="0"/>
</clipPath>
<g clip-path="url(#ArtboardFrame)" id="Layer-1">
<path d="M8.88178e-15 0.0601925C8.88178e-15 0.0269491 0.0269491 0 0.0601925 0L19.9398-3.55271e-15C19.9731-3.55271e-15 20 0.0269491 20 0.0601925L20 19.9398C20 19.9731 19.9731 20 19.9398 20L0.0601925 20C0.0269491 20 3.55271e-15 19.9731 3.55271e-15 19.9398L8.88178e-15 0.0601925Z" fill="url(#LinearGradient)" fill-rule="nonzero" opacity="1" stroke="none"/>
<path d="M2 14.0602C2 14.0269 2.02695 14 2.06019 14L17.9398 14C17.9731 14 18 14.0269 18 14.0602L18 17.9398C18 17.9731 17.9731 18 17.9398 18L2.06019 18C2.02695 18 2 17.9731 2 17.9398L2 14.0602Z" fill="none" opacity="1" stroke="#ffffff" stroke-linecap="butt" stroke-linejoin="round" stroke-width="1"/>
<path d="M-11 26L-6 26L-6 67L-11 67L-11 26Z" fill="none" opacity="1" stroke="#ffffff" stroke-linecap="butt" stroke-linejoin="round" stroke-width="1"/>
<path d="M11.7607 12.9659C11.7893 12.9656 11.8142 12.9406 11.814 12.9126L11.763 7.92203L15.9352 7.90583C15.9814 7.90569 16.0206 7.83164 15.988 7.79966L13.0514 4.9248L10.0605 1.99768C10.0401 1.97776 9.99992 1.97846 9.97971 1.99851L7.02197 4.95996L4.09034 7.84193C4.0579 7.87411 4.07194 7.92101 4.11807 7.92087L8.31722 7.9044L8.36872 12.9477C8.36901 12.9758 8.39446 13.0003 8.42309 13L11.7607 12.9659Z" fill="none" opacity="1" stroke="#ffffff" stroke-linecap="butt" stroke-linejoin="round" stroke-width="1"/>
</g>
</svg>
