<?xml version="1.0" encoding="UTF-8" standalone="no"?>
<!DOCTYPE svg PUBLIC "-//W3C//DTD SVG 1.1//EN" "http://www.w3.org/Graphics/SVG/1.1/DTD/svg11.dtd">
<!-- Created with Vectornator (http://vectornator.io/) -->
<svg height="40.0px" stroke-miterlimit="10" style="fill-rule:nonzero;clip-rule:evenodd;stroke-linecap:round;stroke-linejoin:round;" version="1.1" viewBox="0 0 40 40" width="40.0px" xml:space="preserve" xmlns="http://www.w3.org/2000/svg" xmlns:xlink="http://www.w3.org/1999/xlink">
<defs>
<linearGradient gradientTransform="matrix(0.364054 40.9905 -40.9905 0.364054 19.3159 1.37653)" gradientUnits="userSpaceOnUse" id="LinearGradient" x1="0" x2="1" y1="0" y2="0">
<stop offset="0" stop-color="#819db8"/>
<stop offset="1" stop-color="#0f3963"/>
</linearGradient>
</defs>
<clipPath id="ArtboardFrame">
<rect height="40" width="40" x="0" y="0"/>
</clipPath>
<g clip-path="url(#ArtboardFrame)" id="Layer-1">
<path d="M1.48421e-14 0.0601925C1.48562e-14 0.0269491 0.0269491 0 0.0601925-1.33835e-18L39.9398-8.88038e-16C39.9731-8.88178e-16 40 0.0269491 40 0.0601925L40 39.9398C40 39.9731 39.9731 40 39.9398 40L0.0601925 40C0.0269491 40 2.08167e-17 39.9731 2.23683e-17 39.9398L1.48421e-14 0.0601925Z" fill="url(#LinearGradient)" fill-rule="nonzero" opacity="1" stroke="none"/>
<path d="M29.9865 19.8941L21.4932 14.4471L13 9L13.0666 19.9966L13.1332 30.9931L21.5598 25.4436L29.9865 19.8941Z" fill="none" opacity="1" stroke="#ffffff" stroke-linecap="butt" stroke-linejoin="round" stroke-width="2"/>
<path d="M-11 26L-6 26L-6 67L-11 67L-11 26Z" fill="none" opacity="1" stroke="#ffffff" stroke-linecap="butt" stroke-linejoin="round" stroke-width="1"/>
</g>
</svg>
